<svg width="9" height="9" viewBox="0 0 9 9" fill="none" xmlns="http://www.w3.org/2000/svg">
<path d="M8.49975 6.48954V7.69386C8.50021 7.80566 8.47726 7.91633 8.43238 8.01876C8.3875 8.1212 8.32168 8.21316 8.23913 8.28874C8.15659 8.36432 8.05913 8.42187 7.95301 8.45768C7.84689 8.4935 7.73444 8.5068 7.62287 8.49674C6.38512 8.36252 5.19617 7.9404 4.15156 7.26432C3.17969 6.64797 2.35571 5.82562 1.73813 4.85567C1.05834 3.8084 0.635297 2.61603 0.503265 1.37518C0.493213 1.26417 0.506432 1.15228 0.542081 1.04665C0.577729 0.941017 0.635026 0.843949 0.710323 0.761626C0.78562 0.679304 0.877268 0.61353 0.97943 0.568493C1.08159 0.523457 1.19203 0.500144 1.30372 0.500039H2.51043C2.70564 0.498121 2.89489 0.567111 3.0429 0.694149C3.19091 0.821186 3.28759 0.997603 3.31491 1.19052C3.36584 1.57593 3.4603 1.95435 3.59647 2.31857C3.65059 2.46225 3.6623 2.61841 3.63022 2.76853C3.59814 2.91866 3.52361 3.05646 3.41547 3.16561L2.90462 3.67544C3.47723 4.68046 4.31103 5.51261 5.31805 6.08408L5.82889 5.57425C5.93826 5.46632 6.07633 5.39194 6.22675 5.35992C6.37718 5.3279 6.53364 5.33959 6.67761 5.3936C7.04255 5.52951 7.42173 5.62378 7.8079 5.67461C8.0033 5.70212 8.18174 5.80035 8.30931 5.9506C8.43687 6.10085 8.50465 6.29266 8.49975 6.48954Z" stroke="white" stroke-linecap="round" stroke-linejoin="round"/>
</svg>
